<svg id="Layer_1" data-name="Layer 1" xmlns="http://www.w3.org/2000/svg" viewBox="0 0 50 50"><defs><style>.cls-1{fill:#d8e4ed;}.cls-2{fill:#00b4ca;}.cls-3{fill:#497ea8;}.cls-4{fill:#fff;}</style></defs><title>simple_color_icon</title><circle class="cls-1" cx="24" cy="25.72" r="10.04"/><circle class="cls-2" cx="30.17" cy="19.52" r="6.82"/><path class="cls-3" d="M30.17,13.26a6.15,6.15,0,0,0-4.42,1.84,6.25,6.25,0,0,0-1.84,4.42,6.13,6.13,0,0,0,1.84,4.42,6.3,6.3,0,0,0,4.42,1.84,6.13,6.13,0,0,0,4.42-1.84A6.25,6.25,0,0,0,30.17,13.26Zm0,13.66a7.32,7.32,0,0,1-5.24-2.17,7.44,7.44,0,0,1-2.17-5.24,7.39,7.39,0,1,1,12.61,5.24A7.21,7.21,0,0,1,30.17,26.92Z"/><path class="cls-4" d="M25.35,24.34a6.69,6.69,0,0,1-1.9-3.75l-11.67,13a3.07,3.07,0,0,0,4.33,4.33l13-11.64A6.81,6.81,0,0,1,25.35,24.34Z"/><path class="cls-3" d="M23.15,21.77L12.21,34a2.53,2.53,0,0,0,.09,3.45,2.5,2.5,0,0,0,3.45.09L27.92,26.57A7.25,7.25,0,0,1,23.15,21.77ZM14.05,39.3a3.63,3.63,0,0,1-2.57-1.05,3.7,3.7,0,0,1-.12-5L23.82,19.34,24,20.51a6.25,6.25,0,0,0,5.21,5.21l1.17,0.18L16.51,38.36A3.74,3.74,0,0,1,14.05,39.3Z"/><path class="cls-3" d="M35.06,24.52a23,23,0,0,1-5.65-4.24,22.46,22.46,0,0,1-4.24-5.65l1-.5a22.18,22.18,0,0,0,4,5.35,22.18,22.18,0,0,0,5.35,4Z"/><rect class="cls-3" x="19.08" y="28.19" width="3.77" height="1.14" transform="translate(-14.19 23.25) rotate(-45)"/><path class="cls-3" d="M21.51,13.05l-0.2-1.11a8.08,8.08,0,0,1,1.17-.18l0.12,1.11A6.43,6.43,0,0,0,21.51,13.05Zm-2.6.79-0.44-1.05c0.35-.15.73-0.29,1.11-0.41l0.35,1.08A7.26,7.26,0,0,0,18.91,13.84Zm-2.34,1.32-0.64-.94a11.57,11.57,0,0,1,1-.64l0.59,1C17.15,14.75,16.86,15,16.57,15.16Zm-2,1.78-0.82-.76a11.22,11.22,0,0,1,.85-0.82l0.76,0.85A6.16,6.16,0,0,0,14.52,16.94Zm-1.61,2.17-1-.59c0.2-.32.41-0.67,0.64-1L13.5,18.2A9.61,9.61,0,0,0,12.91,19.11Zm-1.14,2.46-1.08-.38a8.76,8.76,0,0,1,.44-1.11l1,0.47A10.58,10.58,0,0,0,11.77,21.57ZM11.18,24.2l-1.11-.12,0.18-1.17,1.11,0.23A6.09,6.09,0,0,0,11.18,24.2ZM10,27c0-.38-0.06-0.79-0.06-1.17H11.1c0,0.35,0,.73.06,1.08Zm0.59,2.87c-0.12-.38-0.2-0.76-0.29-1.14l1.11-.23,0.26,1.05Z"/><path class="cls-3" d="M38,26.89l-1.14-.09c0-.35.06-0.73,0.06-1.08H38C38,26.1,38,26.51,38,26.89Zm-0.53,2.9-1.08-.32a6.93,6.93,0,0,0,.26-1.05l1.11,0.23C37.66,29,37.55,29.41,37.46,29.79Zm-1.14,2.69-1-.56c0.18-.32.32-0.64,0.5-1l1,0.47Zm-1.7,2.43-0.85-.73a9.52,9.52,0,0,0,.67-0.85L35.35,34C35.12,34.29,34.88,34.61,34.62,34.91Zm-2.14,2L31.81,36a9,9,0,0,0,.85-0.7l0.76,0.85C33.1,36.43,32.78,36.66,32.48,36.9ZM30,38.42l-0.47-1c0.32-.15.64-0.32,1-0.5l0.56,1A9.14,9.14,0,0,1,30,38.42Zm-2.78,1-0.26-1.11c0.35-.09.7-0.18,1.05-0.29l0.35,1.08A8.33,8.33,0,0,1,27.19,39.38Zm-4.68.29a8.08,8.08,0,0,1-1.17-.18l0.2-1.11c0.35,0.06.7,0.12,1.08,0.15Zm1.76,0.09,0-1.14c0.35,0,.73,0,1.08-0.06l0.12,1.11Z"/></svg>