<svg id="Layer_1" data-name="Layer 1" xmlns="http://www.w3.org/2000/svg" viewBox="0 0 20 20"><defs><style>.cls-1{fill:#98a9b1;}</style></defs><title>ui_icon</title><path class="cls-1" d="M18.19,7.16C18,5.3,16.06,3.92,15.55,3.58a4.52,4.52,0,0,0-3.07-1A9.48,9.48,0,0,0,6.17,4.9a7.7,7.7,0,0,0-.91,2.5A11.71,11.71,0,0,0,5,10.06S3.87,11.35,3.4,11.82s-2,1.76-1.79,2.16,1.25-.14,1.59-0.78A7.12,7.12,0,0,1,7,14a8.7,8.7,0,0,0,4.05,1.49c1.86,0.1,4.29-3,5.06-4.15a4.78,4.78,0,0,1,2.26.3C18.66,11.15,18.39,9,18.19,7.16Z"/></svg>